<mxfile host="Electron" modified="2024-01-24T11:34:04.819Z" agent="Mozilla/5.0 (X11; Linux x86_64) AppleWebKit/537.36 (KHTML, like Gecko) draw.io/22.1.18 Chrome/120.0.6099.199 Electron/28.1.2 Safari/537.36" etag="DOrskrAySrXgkU6F0Izd" version="22.1.18" type="device">
  <diagram name="Page-1" id="tdAFmC3SVw97Tts4Q-Ay">
    <mxGraphModel dx="1010" dy="1937" grid="1" gridSize="10" guides="1" tooltips="1" connect="1" arrows="1" fold="1" page="1" pageScale="1" pageWidth="850" pageHeight="1100" math="0" shadow="0">
      <root>
        <mxCell id="0" />
        <mxCell id="1" parent="0" />
        <mxCell id="OguY2kskpmMPCtXBtCeX-2" value="dbschema.json" style="verticalLabelPosition=bottom;html=1;verticalAlign=top;align=center;strokeColor=none;fillColor=#4D4D4D;shape=mxgraph.azure.cloud_services_configuration_file;pointerEvents=1;fontSize=12;shadow=0;spacing=1;" parent="1" vertex="1">
          <mxGeometry x="77" y="-990" width="50" height="60" as="geometry" />
        </mxCell>
        <mxCell id="OguY2kskpmMPCtXBtCeX-3" value="source generator" style="sketch=0;aspect=fixed;pointerEvents=1;shadow=0;dashed=0;html=1;strokeColor=none;labelPosition=center;verticalLabelPosition=bottom;verticalAlign=top;align=center;fillColor=#808080;shape=mxgraph.mscae.enterprise.code_file" parent="1" vertex="1">
          <mxGeometry x="440.5" y="-970" width="49" height="50" as="geometry" />
        </mxCell>
        <mxCell id="OguY2kskpmMPCtXBtCeX-4" value="" style="endArrow=classic;html=1;rounded=0;entryX=1;entryY=0.5;entryDx=0;entryDy=0;entryPerimeter=0;exitX=-0.017;exitY=0.288;exitDx=0;exitDy=0;exitPerimeter=0;" parent="1" source="OguY2kskpmMPCtXBtCeX-3" target="OguY2kskpmMPCtXBtCeX-2" edge="1">
          <mxGeometry width="50" height="50" relative="1" as="geometry">
            <mxPoint x="280.5" y="-989.9199999999998" as="sourcePoint" />
            <mxPoint x="81.75999999999988" y="-909.9999999999999" as="targetPoint" />
          </mxGeometry>
        </mxCell>
        <mxCell id="OguY2kskpmMPCtXBtCeX-5" value="2) generator reads &lt;br&gt;cached&amp;nbsp;&amp;nbsp;schema" style="edgeLabel;html=1;align=center;verticalAlign=middle;resizable=0;points=[];labelBackgroundColor=none;" parent="OguY2kskpmMPCtXBtCeX-4" vertex="1" connectable="0">
          <mxGeometry x="-0.171" relative="1" as="geometry">
            <mxPoint x="-60" y="12" as="offset" />
          </mxGeometry>
        </mxCell>
        <mxCell id="OguY2kskpmMPCtXBtCeX-7" value="" style="endArrow=classic;html=1;rounded=0;exitX=1.067;exitY=0.838;exitDx=0;exitDy=0;exitPerimeter=0;" parent="1" source="OguY2kskpmMPCtXBtCeX-3" target="OguY2kskpmMPCtXBtCeX-16" edge="1">
          <mxGeometry width="50" height="50" relative="1" as="geometry">
            <mxPoint x="290.5" y="-979.9199999999998" as="sourcePoint" />
            <mxPoint x="510.5" y="-920" as="targetPoint" />
          </mxGeometry>
        </mxCell>
        <mxCell id="OguY2kskpmMPCtXBtCeX-17" value="5) generate as many extension methods on &lt;br&gt;database&amp;nbsp;class as there were detected &lt;br&gt;queries.&amp;nbsp;Adding them on the fly to&amp;nbsp;&lt;br&gt;compilation/DLL" style="edgeLabel;html=1;align=center;verticalAlign=middle;resizable=0;points=[];labelBackgroundColor=none;" parent="OguY2kskpmMPCtXBtCeX-7" vertex="1" connectable="0">
          <mxGeometry x="0.1126" y="-1" relative="1" as="geometry">
            <mxPoint x="28" y="-50" as="offset" />
          </mxGeometry>
        </mxCell>
        <mxCell id="OguY2kskpmMPCtXBtCeX-12" value="" style="endArrow=classic;html=1;rounded=0;entryX=0.5;entryY=0;entryDx=0;entryDy=0;entryPerimeter=0;exitX=0.5;exitY=1;exitDx=0;exitDy=0;exitPerimeter=0;" parent="1" source="OguY2kskpmMPCtXBtCeX-11" target="OguY2kskpmMPCtXBtCeX-3" edge="1">
          <mxGeometry width="50" height="50" relative="1" as="geometry">
            <mxPoint x="399.5" y="-926" as="sourcePoint" />
            <mxPoint x="70.5" y="-890" as="targetPoint" />
          </mxGeometry>
        </mxCell>
        <mxCell id="OguY2kskpmMPCtXBtCeX-13" value="1) generator spots&lt;br&gt;attribute usage" style="edgeLabel;html=1;align=center;verticalAlign=middle;resizable=0;points=[];labelBackgroundColor=none;" parent="OguY2kskpmMPCtXBtCeX-12" vertex="1" connectable="0">
          <mxGeometry x="-0.171" relative="1" as="geometry">
            <mxPoint x="45" y="7" as="offset" />
          </mxGeometry>
        </mxCell>
        <mxCell id="OguY2kskpmMPCtXBtCeX-9" value="SogePocoSqlServerConfig.cs" style="sketch=0;outlineConnect=0;fontColor=#232F3E;gradientColor=none;fillColor=#232F3D;strokeColor=none;dashed=0;verticalLabelPosition=bottom;verticalAlign=top;align=center;html=1;fontSize=12;fontStyle=0;aspect=fixed;pointerEvents=1;shape=mxgraph.aws4.source_code;" parent="1" vertex="1">
          <mxGeometry x="50" y="-900" width="57" height="78" as="geometry" />
        </mxCell>
        <mxCell id="OguY2kskpmMPCtXBtCeX-14" value="" style="endArrow=classic;html=1;rounded=0;exitX=0;exitY=0.5;exitDx=0;exitDy=0;exitPerimeter=0;" parent="1" source="OguY2kskpmMPCtXBtCeX-3" target="OguY2kskpmMPCtXBtCeX-9" edge="1">
          <mxGeometry width="50" height="50" relative="1" as="geometry">
            <mxPoint x="449.5" y="-946" as="sourcePoint" />
            <mxPoint x="70.5" y="-890" as="targetPoint" />
          </mxGeometry>
        </mxCell>
        <mxCell id="OguY2kskpmMPCtXBtCeX-15" value="3) guide generator which POCO &lt;br&gt;classes&amp;nbsp;and&amp;nbsp;methods were &lt;br&gt;generated in Pocos project" style="edgeLabel;html=1;align=center;verticalAlign=middle;resizable=0;points=[];labelBackgroundColor=none;" parent="OguY2kskpmMPCtXBtCeX-14" vertex="1" connectable="0">
          <mxGeometry x="-0.171" relative="1" as="geometry">
            <mxPoint x="-62" y="52" as="offset" />
          </mxGeometry>
        </mxCell>
        <mxCell id="OguY2kskpmMPCtXBtCeX-16" value="DatabaseExtension.cs" style="sketch=0;outlineConnect=0;fontColor=#232F3E;gradientColor=none;fillColor=#232F3D;strokeColor=none;dashed=0;verticalLabelPosition=bottom;verticalAlign=top;align=center;html=1;fontSize=12;fontStyle=0;aspect=fixed;pointerEvents=1;shape=mxgraph.aws4.source_code;" parent="1" vertex="1">
          <mxGeometry x="690" y="-850" width="57" height="78" as="geometry" />
        </mxCell>
        <mxCell id="OguY2kskpmMPCtXBtCeX-11" value="attribute [GenerateQueries]&lt;br&gt;used on some class in your project" style="sketch=0;aspect=fixed;pointerEvents=1;shadow=0;dashed=0;html=1;strokeColor=none;labelPosition=right;verticalLabelPosition=middle;verticalAlign=middle;align=left;fillColor=#808080;shape=mxgraph.mscae.enterprise.code_file" parent="1" vertex="1">
          <mxGeometry x="440.5" y="-1100" width="49" height="50" as="geometry" />
        </mxCell>
        <mxCell id="7Fx0MxWd4D6YxC1qUe1b-1" value="Pocos project &lt;br&gt;(containing generated&amp;nbsp;&lt;br&gt;database class and &lt;br&gt;POCO classes)" style="sketch=0;outlineConnect=0;fontColor=#232F3E;gradientColor=none;fillColor=#232F3D;strokeColor=none;dashed=0;verticalLabelPosition=bottom;verticalAlign=top;align=center;html=1;fontSize=12;fontStyle=0;aspect=fixed;pointerEvents=1;shape=mxgraph.aws4.source_code;" vertex="1" parent="1">
          <mxGeometry x="90" y="-740" width="57" height="78" as="geometry" />
        </mxCell>
        <mxCell id="7Fx0MxWd4D6YxC1qUe1b-2" value="" style="endArrow=classic;html=1;rounded=0;exitX=0.04;exitY=0.96;exitDx=0;exitDy=0;exitPerimeter=0;" edge="1" parent="1" source="OguY2kskpmMPCtXBtCeX-3" target="7Fx0MxWd4D6YxC1qUe1b-1">
          <mxGeometry width="50" height="50" relative="1" as="geometry">
            <mxPoint x="451" y="-935" as="sourcePoint" />
            <mxPoint x="87" y="-839" as="targetPoint" />
          </mxGeometry>
        </mxCell>
        <mxCell id="7Fx0MxWd4D6YxC1qUe1b-3" value="4) Utilized in queries to provide&lt;br&gt;code completition in IDE &lt;br&gt;(Visual Studio, Rider, etc)" style="edgeLabel;html=1;align=center;verticalAlign=middle;resizable=0;points=[];labelBackgroundColor=none;" vertex="1" connectable="0" parent="7Fx0MxWd4D6YxC1qUe1b-2">
          <mxGeometry x="-0.171" relative="1" as="geometry">
            <mxPoint x="10" y="66" as="offset" />
          </mxGeometry>
        </mxCell>
      </root>
    </mxGraphModel>
  </diagram>
</mxfile>
